<?xml version="1.0" encoding="UTF-8" standalone="no"?>
<svg
   width="128"
   height="128"
   viewBox="0 0 128 128"
   fill="none"
   version="1.1"
   id="svg15"
   sodipodi:docname="com.github.elahpeca.Eigen.svg"
   inkscape:version="1.3.2 (091e20ef0f, 2023-11-25)"
   xmlns:inkscape="http://www.inkscape.org/namespaces/inkscape"
   xmlns:sodipodi="http://sodipodi.sourceforge.net/DTD/sodipodi-0.dtd"
   xmlns="http://www.w3.org/2000/svg"
   xmlns:svg="http://www.w3.org/2000/svg">
  <sodipodi:namedview
     id="namedview15"
     pagecolor="#ffffff"
     bordercolor="#000000"
     borderopacity="0.25"
     inkscape:showpageshadow="2"
     inkscape:pageopacity="0.0"
     inkscape:pagecheckerboard="0"
     inkscape:deskcolor="#d1d1d1"
     inkscape:zoom="6.2869544"
     inkscape:cx="73.565032"
     inkscape:cy="94.56089"
     inkscape:window-width="1260"
     inkscape:window-height="771"
     inkscape:window-x="0"
     inkscape:window-y="0"
     inkscape:window-maximized="1"
     inkscape:current-layer="svg15" />
  <g
     filter="url(#filter0_iii_15_68)"
     id="g7">
    <rect
       x="12"
       y="12"
       width="104"
       height="104"
       rx="8"
       fill="#C6C6C6"
       id="rect6" />
  </g>
  <rect
     x="14.1895"
     y="13.9665"
     width="99.6211"
     height="89.4776"
     rx="5"
     fill="#9141AC"
     id="rect7" />
  <path
     fill-rule="evenodd"
     clip-rule="evenodd"
     d="M113.811 96.4441C113.811 100.31 110.677 103.444 106.811 103.444L89.0632 103.444L89.0578 103.444L82.0632 103.444L82.0632 96.4441L82.0632 86.7285L82.0632 81.9293L82.0632 74.9293L89.0632 74.9293L90.8211 74.9293L106.811 74.9293L113.811 74.9293L113.811 81.9293L113.811 86.7285L113.811 96.4441Z"
     fill="#F6F5F4"
     id="path7" />
  <rect
     x="48.1263"
     y="44.4479"
     width="31.7474"
     height="28.5148"
     fill="#F6F5F4"
     id="rect8" />
  <path
     fill-rule="evenodd"
     clip-rule="evenodd"
     d="M14.1895 20.9665C14.1895 17.1005 17.3235 13.9665 21.1895 13.9665H37.1789H38.9368H45.9368V20.9665V30.6821V35.4814V42.4814L14.1895 42.4814V35.4814V30.6821V20.9665Z"
     fill="#F6F5F4"
     id="path8" />
  <path
     fill-rule="evenodd"
     clip-rule="evenodd"
     d="M45.9368 13.9665H47.0316H47.1022H48.1263V42.4814H79.8737V13.9665H80.8978H80.9684H82.0632V42.4814L113.811 42.4814V43.4646V43.5281V44.4479L82.0632 44.4479V72.9627H113.811V73.8826V73.946V74.9293H82.0632V103.444H80.9684H80.8978H79.8737V74.9293L48.1263 74.9293V103.444H47.1022H47.0316H45.9368V74.9293H14.1895V73.946V73.8826V72.9627H45.9368V44.4479L14.1895 44.4479V43.5281V43.4646V42.4814L45.9368 42.4814V13.9665ZM48.1263 72.9627L79.8737 72.9627V44.4479H48.1263V72.9627Z"
     fill="black"
     fill-opacity="0.5"
     id="path9" />
  <path
     fill-rule="evenodd"
     clip-rule="evenodd"
     d="M20 12C15.5817 12 12 15.5817 12 20V98.3939C12 102.812 15.5817 106.394 20 106.394H108C112.418 106.394 116 102.812 116 98.3939V20C116 15.5817 112.418 12 108 12H20ZM21.1895 13.9665C17.3235 13.9665 14.1895 17.1006 14.1895 20.9665V96.4441C14.1895 100.31 17.3235 103.444 21.1895 103.444H106.811C110.677 103.444 113.811 100.31 113.811 96.4441V20.9665C113.811 17.1005 110.677 13.9665 106.811 13.9665H21.1895Z"
     fill="#DFDFDF"
     id="path10" />
  <defs
     id="defs15">
    <filter
       id="filter0_iii_15_68"
       x="11"
       y="12"
       width="105"
       height="112"
       filterUnits="userSpaceOnUse"
       color-interpolation-filters="sRGB">
      <feFlood
         flood-opacity="0"
         result="BackgroundImageFix"
         id="feFlood10" />
      <feBlend
         mode="normal"
         in="SourceGraphic"
         in2="BackgroundImageFix"
         result="shape"
         id="feBlend10" />
      <feColorMatrix
         in="SourceAlpha"
         type="matrix"
         values="0 0 0 0 0 0 0 0 0 0 0 0 0 0 0 0 0 0 127 0"
         result="hardAlpha"
         id="feColorMatrix10" />
      <feMorphology
         radius="6"
         operator="erode"
         in="SourceAlpha"
         result="effect1_innerShadow_15_68"
         id="feMorphology10" />
      <feOffset
         dy="8"
         id="feOffset10" />
      <feGaussianBlur
         stdDeviation="1"
         id="feGaussianBlur10" />
      <feComposite
         in2="hardAlpha"
         operator="arithmetic"
         k2="-1"
         k3="1"
         id="feComposite10" />
      <feColorMatrix
         type="matrix"
         values="0 0 0 0 1 0 0 0 0 1 0 0 0 0 1 0 0 0 0.7 0"
         id="feColorMatrix11" />
      <feBlend
         mode="normal"
         in2="shape"
         result="effect1_innerShadow_15_68"
         id="feBlend11" />
      <feColorMatrix
         in="SourceAlpha"
         type="matrix"
         values="0 0 0 0 0 0 0 0 0 0 0 0 0 0 0 0 0 0 127 0"
         result="hardAlpha"
         id="feColorMatrix12" />
      <feMorphology
         radius="2"
         operator="erode"
         in="SourceAlpha"
         result="effect2_innerShadow_15_68"
         id="feMorphology12" />
      <feOffset
         dy="5"
         id="feOffset12" />
      <feGaussianBlur
         stdDeviation="1"
         id="feGaussianBlur12" />
      <feComposite
         in2="hardAlpha"
         operator="arithmetic"
         k2="-1"
         k3="1"
         id="feComposite12" />
      <feColorMatrix
         type="matrix"
         values="0 0 0 0 0 0 0 0 0 0 0 0 0 0 0 0 0 0 0.25 0"
         id="feColorMatrix13" />
      <feBlend
         mode="normal"
         in2="effect1_innerShadow_15_68"
         result="effect2_innerShadow_15_68"
         id="feBlend13" />
      <feColorMatrix
         in="SourceAlpha"
         type="matrix"
         values="0 0 0 0 0 0 0 0 0 0 0 0 0 0 0 0 0 0 127 0"
         result="hardAlpha"
         id="feColorMatrix14" />
      <feOffset
         dx="-1"
         dy="4"
         id="feOffset14" />
      <feGaussianBlur
         stdDeviation="1"
         id="feGaussianBlur14" />
      <feComposite
         in2="hardAlpha"
         operator="arithmetic"
         k2="-1"
         k3="1"
         id="feComposite14" />
      <feColorMatrix
         type="matrix"
         values="0 0 0 0 0 0 0 0 0 0 0 0 0 0 0 0 0 0 0.5 0"
         id="feColorMatrix15" />
      <feBlend
         mode="normal"
         in2="effect2_innerShadow_15_68"
         result="effect3_innerShadow_15_68"
         id="feBlend15" />
    </filter>
    <clipPath
       id="clip0_15_68">
      <rect
         width="128"
         height="128"
         fill="white"
         id="rect15" />
    </clipPath>
  </defs>
</svg>
