<svg width="128" height="128" viewBox="0 0 128 128" fill="none" xmlns="http://www.w3.org/2000/svg">
<g filter="url(#filter0_iii_15_68)">
<rect x="12" y="12" width="104" height="104" rx="8" fill="#77767B"/>
</g>
<rect x="12" y="12" width="104" height="94.3939" rx="8" fill="#C0BFBC"/>
<rect x="113.811" y="104.448" width="31.7474" height="29.51" rx="7" transform="rotate(-180 113.811 104.448)" fill="black" fill-opacity="0.25"/>
<rect x="48.1263" y="44.4535" width="31.7474" height="28.5148" rx="7" fill="black" fill-opacity="0.25"/>
<rect x="14.19" y="44.4535" width="31.7474" height="28.5148" rx="7" fill="black" fill-opacity="0.25"/>
<rect width="31.7474" height="28.5148" rx="7" transform="matrix(-1 0 0 1 113.81 44.4535)" fill="black" fill-opacity="0.25"/>
<rect width="31.7474" height="29.51" rx="7" transform="matrix(1 0 0 -1 14.1895 104.443)" fill="black" fill-opacity="0.25"/>
<rect x="48.1263" y="14.9735" width="31.7474" height="27.51" rx="7" fill="black" fill-opacity="0.25"/>
<rect width="31.7474" height="27.51" rx="7" transform="matrix(-1 0 0 1 113.81 14.97)" fill="black" fill-opacity="0.25"/>
<rect x="14.1895" y="14.9735" width="31.7474" height="27.51" rx="7" fill="black" fill-opacity="0.25"/>
<rect width="31.7474" height="29.51" rx="7" transform="matrix(1 0 0 -1 48.1263 104.443)" fill="black" fill-opacity="0.25"/>
<rect x="113.811" y="103.444" width="31.7474" height="29.51" rx="7" transform="rotate(-180 113.811 103.444)" fill="#F6F5F4"/>
<rect x="48.1263" y="43.45" width="31.7474" height="28.5148" rx="7" fill="#F6F5F4"/>
<rect x="14.19" y="43.45" width="31.7474" height="28.5148" rx="7" fill="#C061CB"/>
<rect width="31.7474" height="28.5148" rx="7" transform="matrix(-1 0 0 1 113.81 43.45)" fill="#C061CB"/>
<rect width="31.7474" height="29.51" rx="7" transform="matrix(1 0 0 -1 14.1895 103.44)" fill="#C061CB"/>
<rect x="48.1263" y="13.97" width="31.7474" height="27.51" rx="7" fill="#C061CB"/>
<rect width="31.7474" height="27.51" rx="7" transform="matrix(-1 0 0 1 113.81 13.9665)" fill="#C061CB"/>
<rect x="14.1895" y="13.97" width="31.7474" height="27.51" rx="7" fill="#F6F5F4"/>
<rect width="31.7474" height="29.51" rx="7" transform="matrix(1 0 0 -1 48.1263 103.44)" fill="#C061CB"/>
<defs>
<filter id="filter0_iii_15_68" x="11" y="12" width="105" height="112" filterUnits="userSpaceOnUse" color-interpolation-filters="sRGB">
<feFlood flood-opacity="0" result="BackgroundImageFix"/>
<feBlend mode="normal" in="SourceGraphic" in2="BackgroundImageFix" result="shape"/>
<feColorMatrix in="SourceAlpha" type="matrix" values="0 0 0 0 0 0 0 0 0 0 0 0 0 0 0 0 0 0 127 0" result="hardAlpha"/>
<feMorphology radius="6" operator="erode" in="SourceAlpha" result="effect1_innerShadow_15_68"/>
<feOffset dy="8"/>
<feGaussianBlur stdDeviation="1"/>
<feComposite in2="hardAlpha" operator="arithmetic" k2="-1" k3="1"/>
<feColorMatrix type="matrix" values="0 0 0 0 1 0 0 0 0 1 0 0 0 0 1 0 0 0 0.7 0"/>
<feBlend mode="normal" in2="shape" result="effect1_innerShadow_15_68"/>
<feColorMatrix in="SourceAlpha" type="matrix" values="0 0 0 0 0 0 0 0 0 0 0 0 0 0 0 0 0 0 127 0" result="hardAlpha"/>
<feMorphology radius="2" operator="erode" in="SourceAlpha" result="effect2_innerShadow_15_68"/>
<feOffset dy="5"/>
<feGaussianBlur stdDeviation="1"/>
<feComposite in2="hardAlpha" operator="arithmetic" k2="-1" k3="1"/>
<feColorMatrix type="matrix" values="0 0 0 0 0 0 0 0 0 0 0 0 0 0 0 0 0 0 0.25 0"/>
<feBlend mode="normal" in2="effect1_innerShadow_15_68" result="effect2_innerShadow_15_68"/>
<feColorMatrix in="SourceAlpha" type="matrix" values="0 0 0 0 0 0 0 0 0 0 0 0 0 0 0 0 0 0 127 0" result="hardAlpha"/>
<feOffset dx="-1" dy="4"/>
<feGaussianBlur stdDeviation="1"/>
<feComposite in2="hardAlpha" operator="arithmetic" k2="-1" k3="1"/>
<feColorMatrix type="matrix" values="0 0 0 0 0 0 0 0 0 0 0 0 0 0 0 0 0 0 0.5 0"/>
<feBlend mode="normal" in2="effect2_innerShadow_15_68" result="effect3_innerShadow_15_68"/>
</filter>
</defs>
</svg>
